HIERARCHY
ROOT joint_Root
{
	OFFSET 0.0 0.0 0.0
	CHANNELS 6 Xposition Yposition Zposition Zrotation Xrotation Yrotation 
	JOINT Hips
	{
		OFFSET -17.1583 93.1646 452.98
		CHANNELS 6 Xposition Yposition Zposition Zrotation Xrotation Yrotation 
		JOINT Spine
		{
			OFFSET 15.7357 0.0 0.0
			CHANNELS 6 Xposition Yposition Zposition Zrotation Xrotation Yrotation 
			JOINT Chest
			{
				OFFSET 8.98455 -0.406207 0.0
				CHANNELS 6 Xposition Yposition Zposition Zrotation Xrotation Yrotation 
				JOINT Neck
				{
					OFFSET 16.3773 0.0 0.0
					CHANNELS 6 Xposition Yposition Zposition Zrotation Xrotation Yrotation 
					JOINT Head
					{
						OFFSET 6.45672 0.0 0.0
						CHANNELS 6 Xposition Yposition Zposition Zrotation Xrotation Yrotation 
						End Site
						{
							OFFSET 0.0 0.0 0.0
						}
					}
				}
				JOINT Shoulder_L
				{
					OFFSET 12.9942 -0.242716 4.98039
					CHANNELS 6 Xposition Yposition Zposition Zrotation Xrotation Yrotation 
					JOINT UpperArm_L
					{
						OFFSET 5.34809 0.0 0.0
						CHANNELS 6 Xposition Yposition Zposition Zrotation Xrotation Yrotation 
						JOINT LowerArm_L
						{
							OFFSET 24.3286 1.87007e-05 0.0
							CHANNELS 6 Xposition Yposition Zposition Zrotation Xrotation Yrotation 
							JOINT Hand_L
							{
								OFFSET 22.2916 0.0 0.0
								CHANNELS 6 Xposition Yposition Zposition Zrotation Xrotation Yrotation 
								End Site
								{
									OFFSET 0.0 0.0 0.0
								}
							}
						}
					}
				}
				JOINT Shoulder_R
				{
					OFFSET 12.9945 -0.242716 -4.98039
					CHANNELS 6 Xposition Yposition Zposition Zrotation Xrotation Yrotation 
					JOINT UpperArm_R
					{
						OFFSET -5.34813 0.0 0.0
						CHANNELS 6 Xposition Yposition Zposition Zrotation Xrotation Yrotation 
						JOINT LowerArm_R
						{
							OFFSET -24.3289 0.000322201 0.0
							CHANNELS 6 Xposition Yposition Zposition Zrotation Xrotation Yrotation 
							JOINT Hand_R
							{
								OFFSET -22.2915 -0.000108084 0.0
								CHANNELS 6 Xposition Yposition Zposition Zrotation Xrotation Yrotation 
								End Site
								{
									OFFSET 0.0 0.0 0.0
								}
							}
						}
					}
				}
			}
		}
		JOINT UpperLeg_L
		{
			OFFSET -2.19248 -6.46944 0.0
			CHANNELS 6 Xposition Yposition Zposition Zrotation Xrotation Yrotation 
			JOINT LowerLeg_L
			{
				OFFSET 39.0811 0.0 -1.23785e-05
				CHANNELS 6 Xposition Yposition Zposition Zrotation Xrotation Yrotation 
				JOINT Foot_L
				{
					OFFSET 40.9854 0.0 -1.26872e-05
					CHANNELS 6 Xposition Yposition Zposition Zrotation Xrotation Yrotation 
					JOINT Toes_L
					{
						OFFSET 11.7543 0.0 0.0
						CHANNELS 6 Xposition Yposition Zposition Zrotation Xrotation Yrotation 
						End Site
						{
							OFFSET 0.0 0.0 0.0
						}
					}
				}
			}
		}
		JOINT UpperLeg_R
		{
			OFFSET -2.19251 6.46944 0.0
			CHANNELS 6 Xposition Yposition Zposition Zrotation Xrotation Yrotation 
			JOINT LowerLeg_R
			{
				OFFSET -39.0811 -0.00228153 -0.0401928
				CHANNELS 6 Xposition Yposition Zposition Zrotation Xrotation Yrotation 
				JOINT Foot_R
				{
					OFFSET -40.9854 0.0 0.0
					CHANNELS 6 Xposition Yposition Zposition Zrotation Xrotation Yrotation 
					JOINT Toes_R
					{
						OFFSET -11.7543 0.0 0.0
						CHANNELS 6 Xposition Yposition Zposition Zrotation Xrotation Yrotation 
						End Site
						{
							OFFSET 0.0 0.0 0.0
						}
					}
				}
			}
		}
	}
}
MOTION
Frames:	6
Frame Time:	0.0333333
0.000000 0.000000 0.000000 0.000000 0.000000 -0.000000 192.121000 92.829100 -95.248000 88.964100 2.007860 -2.727630 15.735700 0.000005 -0.000001 47.072300 85.116600 -45.710100 8.984550 -0.406207 -0.000000 -0.530976 -6.749040 2.694020 16.377300 -0.000001 -0.000001 1.853660 2.000020 -2.142940 6.456720 -0.000001 -0.000000 2.240980 4.290580 -2.925050 12.994200 -0.242716 4.980390 -91.749200 5.563970 -72.516800 5.348090 -0.000007 -0.000001 -69.958100 -6.697330 -15.522000 24.328600 0.000019 0.000005 30.640800 16.052500 -64.976600 22.291600 -0.000001 0.000005 55.852100 4.193470 21.409400 12.994500 -0.242716 -4.980390 90.260300 -0.760326 -71.100000 -5.348130 -0.000001 -0.000004 -57.831500 -12.880000 16.528600 -24.328900 0.000322 -0.000009 0.879420 9.207900 -5.485830 -22.291500 -0.000108 -0.000004 37.020600 5.218510 2.250800 -2.192480 -6.469440 -0.000000 -179.373000 -4.679770 7.871660 39.081100 -0.000007 -0.000012 0.000558 -0.003766 8.442060 40.985400 -0.000006 -0.000013 -1.146510 19.317100 -66.409700 11.754300 -0.000000 0.000003 0.002405 0.099026 -12.561000 -2.192510 6.469440 -0.000001 179.251000 -3.972560 152.074000 -39.081100 -0.002282 -0.040193 0.043347 -0.108790 20.199700 -40.985400 0.000008 0.000006 -9.841650 -11.740000 -61.016600 -11.754300 -0.000006 -0.000006 -0.001474 0.189592 -8.881990
0.000000 0.000000 0.000000 0.000000 0.000000 -0.000000 191.953000 92.168700 -92.229600 89.419400 3.029190 -2.669730 15.735700 0.000005 -0.000001 46.114500 84.905100 -44.852100 8.984550 -0.406207 -0.000000 -0.338629 -7.151450 2.504670 16.377300 -0.000001 -0.000001 1.215460 1.808720 -2.033450 6.456720 -0.000001 -0.000000 1.900740 4.140250 -2.920130 12.994200 -0.242716 4.980390 -91.750500 5.710470 -72.925500 5.348090 -0.000007 -0.000001 -70.001900 -6.441730 -15.671200 24.328600 0.000019 0.000005 30.451600 16.206200 -64.605100 22.291600 -0.000001 0.000005 55.808200 4.188900 21.477700 12.994500 -0.242716 -4.980390 90.182300 -0.534482 -71.165800 -5.348130 -0.000001 -0.000004 -58.053200 -13.282800 16.218900 -24.328900 0.000322 -0.000009 0.899367 9.208120 -5.609230 -22.291500 -0.000108 -0.000004 37.407200 5.225190 2.079430 -2.192480 -6.469440 -0.000000 -179.462000 -3.779980 9.147810 39.081100 -0.000007 -0.000012 -0.000730 0.004146 9.983870 40.985400 -0.000006 -0.000013 -0.642880 19.252800 -67.756900 11.754300 -0.000000 0.000003 0.002439 0.072115 -13.652000 -2.192510 6.469440 -0.000001 179.032000 -2.851050 154.948000 -39.081100 -0.002282 -0.040193 0.029054 -0.181720 8.053320 -40.985400 0.000008 0.000006 -10.952900 -9.540030 -60.192300 -11.754300 -0.000006 -0.000006 -0.001104 0.184537 -9.087490
0.000000 0.000000 0.000000 0.000000 0.000000 -0.000000 191.677000 91.480900 -88.807900 89.600800 4.188580 -2.444180 15.735700 0.000005 -0.000001 45.692700 84.652100 -44.415900 8.984550 -0.406207 -0.000000 -0.020976 -7.556060 2.553480 16.377300 -0.000001 -0.000001 0.698469 1.552420 -2.000310 6.456720 -0.000001 -0.000000 1.286100 3.897680 -2.967160 12.994200 -0.242716 4.980390 -91.786900 5.997760 -73.376400 5.348090 -0.000007 -0.000001 -70.304500 -5.789660 -15.237100 24.328600 0.000019 0.000005 29.905700 17.094100 -62.930100 22.291600 -0.000001 0.000005 56.029900 4.185730 21.525000 12.994500 -0.242716 -4.980390 89.928600 0.206984 -70.981400 -5.348130 -0.000001 -0.000004 -58.472700 -12.776900 14.945200 -24.328900 0.000322 -0.000009 0.920108 9.107650 -5.799970 -22.291500 -0.000108 -0.000004 37.447500 5.216670 2.297560 -2.192480 -6.469440 -0.000000 -178.901000 -3.510200 10.124900 39.081100 -0.000007 -0.000012 -0.003579 0.015776 12.780800 40.985400 -0.000006 -0.000013 -0.117356 20.008200 -68.970500 11.754300 -0.000000 0.000003 0.001277 0.025330 -15.549300 -2.192510 6.469440 -0.000001 179.075000 -2.606400 153.917000 -39.081100 -0.002282 -0.040193 0.014354 -0.086456 7.257690 -40.985400 0.000008 0.000006 -11.012000 -9.292870 -62.479400 -11.754300 -0.000006 -0.000006 -0.000970 0.182643 -9.164450
0.000000 0.000000 0.000000 0.000000 0.000000 -0.000000 191.307000 90.872500 -84.835200 89.227200 5.161970 -2.682350 15.735700 0.000005 -0.000001 44.156000 84.677300 -42.672400 8.984550 -0.406207 -0.000000 -0.243782 -7.739500 2.952550 16.377300 -0.000001 -0.000001 0.388469 1.303590 -2.058980 6.456720 -0.000001 -0.000000 0.973027 3.576550 -2.971240 12.994200 -0.242716 4.980390 -91.799200 6.145160 -73.646400 5.348090 -0.000007 -0.000001 -70.872700 -4.238120 -14.073300 24.328600 0.000019 0.000005 28.463900 18.797200 -59.274100 22.291600 -0.000001 0.000005 55.986300 4.181570 21.587000 12.994500 -0.242716 -4.980390 89.649000 0.999708 -70.656600 -5.348130 -0.000001 -0.000004 -59.453500 -11.349000 13.114900 -24.328900 0.000322 -0.000009 0.886735 8.597210 -5.918130 -22.291500 -0.000108 -0.000004 37.148300 5.232200 1.898490 -2.192480 -6.469440 -0.000000 -177.531000 -3.662130 10.860900 39.081100 -0.000007 -0.000012 -0.004963 0.017940 15.463400 40.985400 -0.000006 -0.000013 0.421684 21.212000 -69.137900 11.754300 -0.000000 0.000003 -0.003934 -0.050754 -18.641300 -2.192510 6.469440 -0.000001 -179.592000 -1.266920 153.838000 -39.081100 -0.002282 -0.040193 0.019147 -0.116992 7.693450 -40.985400 0.000008 0.000006 -10.915600 -8.519800 -61.689500 -11.754300 -0.000006 -0.000006 -0.000788 0.180022 -9.270960
0.000000 0.000000 0.000000 0.000000 0.000000 -0.000000 190.858000 90.430900 -80.459100 88.204600 5.521610 -3.892560 15.735700 0.000005 -0.000001 39.422500 85.225800 -37.467300 8.984550 -0.406207 -0.000000 -1.574270 -7.533600 3.809970 16.377300 -0.000001 -0.000001 0.595392 1.228390 -2.187410 6.456720 -0.000001 -0.000000 1.043200 3.202550 -3.228650 12.994200 -0.242716 4.980390 -91.844100 6.262330 -73.555000 5.348090 -0.000007 -0.000001 -71.614200 -1.741180 -11.921000 24.328600 0.000019 0.000005 25.272700 20.768700 -53.087800 22.291600 -0.000001 0.000005 55.575600 4.217390 21.049500 12.994500 -0.242716 -4.980390 89.432300 1.599350 -70.456300 -5.348130 -0.000001 -0.000004 -60.803700 -9.446660 11.243800 -24.328900 0.000322 -0.000009 0.853602 7.757730 -6.306670 -22.291500 -0.000108 -0.000004 36.176100 5.246980 1.510530 -2.192480 -6.469440 -0.000000 -175.664000 -4.027970 10.493000 39.081100 -0.000007 -0.000012 -0.001429 0.004354 18.169600 40.985400 -0.000006 -0.000013 0.965333 21.794400 -67.408800 11.754300 -0.000000 0.000003 -0.024096 -0.189016 -24.308000 -2.192510 6.469440 -0.000001 -177.662000 -1.391380 150.356000 -39.081100 -0.002282 -0.040193 0.023677 -0.076644 14.867100 -40.985400 0.000008 0.000006 -7.734260 -8.754830 -58.162800 -11.754300 -0.000006 -0.000006 -0.000713 0.178906 -9.316300
0.000000 0.000000 0.000000 0.000000 0.000000 -0.000000 190.449000 90.158800 -75.666300 87.059800 6.008060 -5.018190 15.735700 0.000005 -0.000001 31.304500 85.784100 -28.805900 8.984550 -0.406207 -0.000000 -3.230190 -7.440470 4.793570 16.377300 -0.000001 -0.000001 0.907525 1.196950 -2.400930 6.456720 -0.000001 -0.000000 1.598640 2.840830 -3.578030 12.994200 -0.242716 4.980390 -91.950000 6.486260 -73.227800 5.348090 -0.000007 -0.000001 -72.596700 1.127880 -8.905050 24.328600 0.000019 0.000005 21.294300 23.032400 -44.889600 22.291600 -0.000001 0.000005 54.639900 4.271000 20.235200 12.994500 -0.242716 -4.980390 89.223800 2.158090 -70.212400 -5.348130 -0.000001 -0.000004 -62.150900 -7.415430 9.291710 -24.328900 0.000322 -0.000009 0.857480 7.019690 -6.990770 -22.291500 -0.000108 -0.000004 35.185100 5.258080 1.215860 -2.192480 -6.469440 -0.000000 -174.333000 -3.010750 9.527890 39.081100 -0.000007 -0.000012 0.006282 -0.015863 21.604900 40.985400 -0.000006 -0.000013 1.330070 20.628700 -62.906800 11.754300 -0.000000 0.000003 -0.081871 -0.397157 -33.073800 -2.192510 6.469440 -0.000001 -175.908000 -1.888350 147.346000 -39.081100 -0.002282 -0.040193 0.024811 -0.051334 22.719800 -40.985400 0.000008 0.000006 -6.297600 -8.433530 -57.841200 -11.754300 -0.000006 -0.000006 -0.001736 0.193033 -8.742110
